<?xml version="1.0" encoding="utf-8"?>
<!-- Generator: Adobe Illustrator 27.8.1, SVG Export Plug-In . SVG Version: 6.00 Build 0)  -->
<svg version="1.1" id="Layer_1" xmlns="http://www.w3.org/2000/svg" xmlns:xlink="http://www.w3.org/1999/xlink" x="0px" y="0px"
	 viewBox="0 0 1080 1080" style="enable-background:new 0 0 1080 1080;" xml:space="preserve">
<g>
	<g>
		<path d="M465.66,601.43c10.48,0,17.09,5.27,17.09,14.71c0,6.82-4.11,11.31-9.13,13.05l10.09,18.51h-8.67l-8.87-17.16h-8.16v17.16
			h-7.97v-46.27H465.66z M458.01,608.24v15.75h8.1c5.21,0,8.55-2.76,8.55-7.84c0-5.14-3.47-7.9-8.93-7.9H458.01z"/>
		<path d="M528.01,647.7v-46.27h8.1v46.27H528.01z"/>
		<path d="M593.1,621.03l-1.8-1.8v28.47h-7.78v-46.98h0.13l21.53,23.91l21.53-23.91h0.13v46.98h-7.71v-28.47l-1.86,1.8
			c-3.99,4.69-8.03,9.32-12.08,13.95L593.1,621.03z"/>
		<path d="M674.41,647.7v-46.27h29.12v6.81h-21.02v12.73h17.8v6.62h-17.8v13.31h21.98v6.81H674.41z"/>
		<path d="M383.62,647.7h-8.11v-46.27h31.39c1.51,14.94-8.43,29.03-23.28,31.09V647.7z M383.62,609.54v14.74
			c7.35-1.58,13.16-7.39,14.74-14.74H383.62z"/>
	</g>
	<g>
		<path d="M184.98,432.3c32.51,0,57.48,25.12,57.48,57.48c0,32.36-24.5,57.48-57.48,57.48c-32.82,0-57.48-25.12-57.48-57.48
			C127.5,457.88,152.16,432.3,184.98,432.3z M184.98,529.38c22.04,0,37.91-17.1,37.91-39.6c0-22.34-15.87-39.61-37.91-39.61
			s-38.06,17.26-38.06,39.61C146.92,512.27,162.94,529.38,184.98,529.38z"/>
		<path d="M380.05,434.3l28.04,49.01l28.2-49.01h21.73l-40.22,67.5v43.45h-19.42v-43.45l-40.07-67.5H380.05z"/>
		<path d="M844.75,505.65c0,25.58-16.64,41.6-44.69,41.6c-27.89,0-44.53-16.02-44.53-41.6V434.3h19.26v69.65
			c0,16.03,9.4,25.43,25.27,25.43c16.03,0,25.27-9.4,25.27-25.43V434.3h19.42V505.65z"/>
		<path d="M880.38,540.93v-18.95c7.86,4.01,18.49,7.7,29.59,8.01c4.01,0,7.86-0.31,11.09-1.23c7.86-1.85,12.64-5.86,12.64-11.87
			c0-8.78-6.32-13.56-23.27-19.57c-20.34-7.24-31.13-15.87-31.13-33.9c0-19.42,16.18-31.13,38.68-31.13
			c11.1,0,21.73,2.77,28.35,5.55v18.18c-6.32-3.54-16.95-6.63-26.97-6.63c-12.63,0-21.11,5.24-21.11,13.72
			c0,7.86,5.86,13.1,22.81,19.26c20.34,7.55,31.44,16.18,31.44,33.75c0,19.41-14.79,31.13-39.6,31.13
			C900.11,547.25,888.09,544.17,880.38,540.93z"/>
		<path d="M665.11,545.25h-19.44V434.3h75.26c3.62,35.82-20.21,69.61-55.82,74.54V545.25z M665.11,453.74v35.34
			c17.63-3.8,31.55-17.71,35.34-35.34H665.11z"/>
		<path d="M514.74,481.28l-4.32-4.32v68.29h-18.65V432.57h0.31l51.64,57.35l51.64-57.35h0.31v112.69h-18.5v-68.29l-4.47,4.32
			c-9.56,11.25-19.27,22.35-28.98,33.45L514.74,481.28z"/>
		<path d="M287,545.25V434.3h19.42v94.62h45.15v16.34H287z"/>
	</g>
</g>
</svg>
